<svg width="24" height="24" viewBox="0 0 24 24" fill="none" xmlns="http://www.w3.org/2000/svg">
<path d="M23.643 4.93695C22.808 5.30695 21.911 5.55696 20.968 5.66996C21.941 5.08775 22.6689 4.17142 23.016 3.09195C22.1018 3.63494 21.1013 4.01715 20.058 4.22196C19.3564 3.47282 18.4271 2.97628 17.4143 2.80943C16.4016 2.64258 15.3621 2.81475 14.4572 3.29921C13.5524 3.78367 12.8328 4.55332 12.4102 5.48866C11.9875 6.424 11.8855 7.4727 12.12 8.47195C10.2677 8.37895 8.45563 7.8975 6.80142 7.05886C5.14722 6.22022 3.68784 5.04312 2.518 3.60396C2.118 4.29396 1.888 5.09396 1.888 5.94596C1.88755 6.71295 2.07643 7.4682 2.43788 8.14469C2.79932 8.82118 3.32216 9.39799 3.96 9.82396C3.22028 9.80042 2.49687 9.60054 1.85 9.24095V9.30095C1.84993 10.3767 2.22203 11.4193 2.90318 12.252C3.58433 13.0846 4.53257 13.6559 5.587 13.869C4.90078 14.0547 4.18134 14.082 3.483 13.949C3.7805 14.8746 4.36 15.684 5.14037 16.2639C5.92074 16.8438 6.86292 17.1651 7.835 17.183C6.18483 18.4784 4.14689 19.181 2.049 19.178C1.67738 19.1781 1.30608 19.1564 0.937 19.113C3.06648 20.4821 5.54534 21.2088 8.077 21.206C16.647 21.206 21.332 14.108 21.332 7.95195C21.332 7.75195 21.327 7.54995 21.318 7.34995C22.2293 6.69093 23.0159 5.87485 23.641 4.93995L23.643 4.93695V4.93695Z" fill="black"/>
</svg>
